<svg xmlns="http://www.w3.org/2000/svg" xmlns:xlink="http://www.w3.org/1999/xlink" width="2000" zoomAndPan="magnify" viewBox="0 0 1500 749.999995" height="1000" preserveAspectRatio="xMidYMid meet" version="1.0"><defs><g/><clipPath id="8e13f957dd"><rect x="0" width="1078" y="0" height="750"/></clipPath><clipPath id="e67c9885b6"><path d="M 479.265625 77.898438 L 1099.480469 77.898438 L 1099.480469 347 L 479.265625 347 Z M 479.265625 77.898438 " clip-rule="nonzero"/></clipPath><clipPath id="8ce6ea9ad5"><path d="M 1097.917969 77.898438 L 480.765625 77.898438 C 479.9375 77.898438 479.265625 78.570312 479.265625 79.398438 L 479.265625 289.992188 C 479.265625 290.820312 479.9375 291.492188 480.765625 291.492188 L 524.664062 291.492188 C 525.492188 291.492188 526.164062 292.164062 526.164062 292.992188 L 526.164062 345.96875 C 526.164062 346.269531 526.328125 346.550781 526.59375 346.699219 C 526.859375 346.847656 527.183594 346.839844 527.441406 346.683594 L 616.039062 292.277344 C 616.871094 291.761719 617.835938 291.492188 618.816406 291.492188 L 1097.917969 291.492188 C 1098.746094 291.492188 1099.417969 290.820312 1099.417969 289.992188 L 1099.417969 79.398438 C 1099.417969 78.570312 1098.746094 77.898438 1097.917969 77.898438 Z M 1097.917969 77.898438 " clip-rule="nonzero"/></clipPath><clipPath id="23c674d972"><path d="M 0.265625 0.898438 L 620.441406 0.898438 L 620.441406 270 L 0.265625 270 Z M 0.265625 0.898438 " clip-rule="nonzero"/></clipPath><clipPath id="a267cf30d7"><path d="M 618.917969 0.898438 L 1.765625 0.898438 C 0.9375 0.898438 0.265625 1.570312 0.265625 2.398438 L 0.265625 212.992188 C 0.265625 213.820312 0.9375 214.492188 1.765625 214.492188 L 45.664062 214.492188 C 46.492188 214.492188 47.164062 215.164062 47.164062 215.992188 L 47.164062 268.96875 C 47.164062 269.269531 47.328125 269.550781 47.59375 269.699219 C 47.859375 269.847656 48.183594 269.839844 48.441406 269.683594 L 137.039062 215.277344 C 137.871094 214.761719 138.835938 214.492188 139.816406 214.492188 L 618.917969 214.492188 C 619.746094 214.492188 620.417969 213.820312 620.417969 212.992188 L 620.417969 2.398438 C 620.417969 1.570312 619.746094 0.898438 618.917969 0.898438 Z M 618.917969 0.898438 " clip-rule="nonzero"/></clipPath><clipPath id="6da745ca53"><rect x="0" width="621" y="0" height="270"/></clipPath><clipPath id="2f3639418b"><rect x="0" width="463" y="0" height="280"/></clipPath></defs><g transform="matrix(1, 0, 0, 1, 211, -0.000000000000042435)"><g clip-path="url(#8e13f957dd)"><g fill="#000000" fill-opacity="1"><g transform="translate(1.315528, 668.399262)"><g><path d="M 332.484375 -278.921875 C 338.046875 -273.359375 340.828125 -266.398438 340.828125 -258.046875 L 340.828125 -165.546875 C 340.828125 -162.296875 340.015625 -159.046875 338.390625 -155.796875 C 336.765625 -152.554688 334.796875 -149.773438 332.484375 -147.453125 L 276.140625 -91.125 L 324.828125 -14.609375 C 327.148438 -11.359375 327.378906 -8.109375 325.515625 -4.859375 C 323.660156 -1.617188 320.648438 0 316.484375 0 L 264.3125 0 C 260.132812 0 256.65625 -2.085938 253.875 -6.265625 L 210.75 -76.515625 L 89.734375 -76.515625 L 89.734375 -10.4375 C 89.734375 -7.65625 88.6875 -5.21875 86.59375 -3.125 C 84.507812 -1.039062 82.078125 0 79.296875 0 L 31.296875 0 C 28.515625 0 26.078125 -1.039062 23.984375 -3.125 C 21.898438 -5.21875 20.859375 -7.65625 20.859375 -10.4375 L 20.859375 -337.34375 C 20.859375 -340.125 21.898438 -342.554688 23.984375 -344.640625 C 26.078125 -346.734375 28.515625 -347.78125 31.296875 -347.78125 L 251.796875 -347.78125 C 258.753906 -347.78125 264.78125 -345.226562 269.875 -340.125 Z M 89.734375 -280.3125 L 89.734375 -145.375 L 230.234375 -145.375 C 233.472656 -145.375 236.953125 -147.226562 240.671875 -150.9375 L 262.921875 -171.796875 C 266.171875 -175.046875 267.796875 -178.988281 267.796875 -183.625 L 267.796875 -242.0625 C 267.796875 -244.84375 267.097656 -247.160156 265.703125 -249.015625 L 262.234375 -253.1875 L 241.359375 -275.4375 C 238.109375 -278.6875 234.164062 -280.3125 229.53125 -280.3125 Z M 89.734375 -280.3125 "/></g></g></g><g fill="#000000" fill-opacity="1"><g transform="translate(363.004318, 668.399262)"><g><path d="M 20.859375 -337.34375 C 20.859375 -340.125 21.898438 -342.554688 23.984375 -344.640625 C 26.078125 -346.734375 28.515625 -347.78125 31.296875 -347.78125 L 77.90625 -347.78125 C 80.6875 -347.78125 83.117188 -346.734375 85.203125 -344.640625 C 87.296875 -342.554688 88.34375 -340.125 88.34375 -337.34375 L 88.34375 -103.640625 C 88.34375 -98.078125 89.960938 -94.132812 93.203125 -91.8125 L 116.15625 -70.953125 C 117.550781 -69.554688 119.867188 -68.859375 123.109375 -68.859375 L 233.703125 -68.859375 C 236.484375 -68.859375 238.804688 -69.554688 240.671875 -70.953125 L 263.625 -91.8125 C 266.863281 -94.59375 268.484375 -98.535156 268.484375 -103.640625 L 268.484375 -337.34375 C 268.484375 -340.125 269.523438 -342.554688 271.609375 -344.640625 C 273.703125 -346.734375 276.140625 -347.78125 278.921875 -347.78125 L 325.515625 -347.78125 C 328.304688 -347.78125 330.742188 -346.734375 332.828125 -344.640625 C 334.910156 -342.554688 335.953125 -340.125 335.953125 -337.34375 L 335.953125 -82.765625 C 335.953125 -75.816406 333.40625 -69.789062 328.3125 -64.6875 L 270.578125 -8.34375 C 264.546875 -2.78125 257.585938 0 249.703125 0 L 107.109375 0 C 98.765625 0 91.8125 -2.78125 86.25 -8.34375 L 28.515625 -64.6875 C 23.410156 -69.789062 20.859375 -75.816406 20.859375 -82.765625 Z M 20.859375 -337.34375 "/></g></g></g><g fill="#000000" fill-opacity="1"><g transform="translate(719.824213, 668.399262)"><g><path d="M 20.859375 -10.4375 L 20.859375 -324.828125 C 20.859375 -331.316406 23.175781 -336.765625 27.8125 -341.171875 C 32.457031 -345.578125 37.796875 -347.78125 43.828125 -347.78125 L 237.1875 -347.78125 C 245.53125 -347.78125 252.484375 -345 258.046875 -339.4375 L 328.3125 -268.484375 C 333.40625 -262.453125 335.953125 -256.425781 335.953125 -250.40625 L 335.953125 -10.4375 C 335.953125 -7.65625 334.910156 -5.21875 332.828125 -3.125 C 330.742188 -1.039062 328.304688 0 325.515625 0 L 278.921875 0 C 276.140625 0 273.703125 -1.039062 271.609375 -3.125 C 269.523438 -5.21875 268.484375 -7.65625 268.484375 -10.4375 L 268.484375 -230.921875 C 268.484375 -235.554688 266.863281 -239.5 263.625 -242.75 L 227.453125 -276.828125 C 225.597656 -278.222656 223.28125 -278.921875 220.5 -278.921875 L 88.34375 -278.921875 L 88.34375 -10.4375 C 88.34375 -7.65625 87.296875 -5.21875 85.203125 -3.125 C 83.117188 -1.039062 80.6875 0 77.90625 0 L 31.296875 0 C 28.515625 0 26.078125 -1.039062 23.984375 -3.125 C 21.898438 -5.21875 20.859375 -7.65625 20.859375 -10.4375 Z M 20.859375 -10.4375 "/></g></g></g></g></g><g clip-path="url(#e67c9885b6)"><g clip-path="url(#8ce6ea9ad5)"><g transform="matrix(1, 0, 0, 1, 479, 77)"><g clip-path="url(#6da745ca53)"><g clip-path="url(#23c674d972)"><g clip-path="url(#a267cf30d7)"><path fill="#fc4c02" d="M 0.265625 0.898438 L 620.480469 0.898438 L 620.480469 270.46875 L 0.265625 270.46875 Z M 0.265625 0.898438 " fill-opacity="1" fill-rule="nonzero"/></g></g></g></g></g></g><g transform="matrix(1, 0, 0, 1, 553, 16)"><g clip-path="url(#2f3639418b)"><g fill="#ffffff" fill-opacity="1"><g transform="translate(0.303593, 232.642514)"><g><path d="M 108.5 -115.921875 C 109.425781 -115.921875 110.238281 -115.570312 110.9375 -114.875 C 111.632812 -114.175781 111.984375 -113.363281 111.984375 -112.4375 L 111.984375 -96.453125 C 111.984375 -95.523438 111.632812 -94.710938 110.9375 -94.015625 C 110.238281 -93.316406 109.425781 -92.96875 108.5 -92.96875 L 43.8125 -92.96875 C 42.738281 -92.96875 41.582031 -92.347656 40.34375 -91.109375 L 32.921875 -84.15625 C 31.835938 -83.070312 31.296875 -81.757812 31.296875 -80.21875 L 31.296875 -52.390625 L 93.671875 -52.390625 C 94.597656 -52.390625 95.40625 -52.039062 96.09375 -51.34375 C 96.789062 -50.65625 97.140625 -49.847656 97.140625 -48.921875 L 97.140625 -32.921875 C 97.140625 -31.992188 96.789062 -31.179688 96.09375 -30.484375 C 95.40625 -29.785156 94.597656 -29.4375 93.671875 -29.4375 L 31.296875 -29.4375 L 31.296875 -3.484375 C 31.296875 -2.554688 30.945312 -1.742188 30.25 -1.046875 C 29.5625 -0.347656 28.753906 0 27.828125 0 L 10.4375 0 C 9.507812 0 8.695312 -0.347656 8 -1.046875 C 7.300781 -1.742188 6.953125 -2.554688 6.953125 -3.484375 L 6.953125 -86.25 C 6.953125 -87.476562 7.257812 -88.632812 7.875 -89.71875 C 8.5 -90.800781 9.117188 -91.65625 9.734375 -92.28125 L 30.609375 -113.140625 C 32.460938 -114.992188 34.703125 -115.921875 37.328125 -115.921875 Z M 108.5 -115.921875 "/></g></g></g><g fill="#ffffff" fill-opacity="1"><g transform="translate(119.237198, 232.642514)"><g><path d="M 6.953125 -112.4375 C 6.953125 -113.363281 7.300781 -114.175781 8 -114.875 C 8.695312 -115.570312 9.507812 -115.921875 10.4375 -115.921875 L 27.828125 -115.921875 C 28.753906 -115.921875 29.5625 -115.570312 30.25 -114.875 C 30.945312 -114.175781 31.296875 -113.363281 31.296875 -112.4375 L 31.296875 -36.40625 C 31.296875 -34.851562 31.835938 -33.535156 32.921875 -32.453125 L 41.03125 -24.8125 C 42.269531 -23.570312 43.429688 -22.953125 44.515625 -22.953125 L 97.84375 -22.953125 C 98.769531 -22.953125 99.578125 -22.601562 100.265625 -21.90625 C 100.960938 -21.207031 101.3125 -20.394531 101.3125 -19.46875 L 101.3125 -3.484375 C 101.3125 -2.554688 100.960938 -1.742188 100.265625 -1.046875 C 99.578125 -0.347656 98.769531 0 97.84375 0 L 37.328125 0 C 34.703125 0 32.460938 -0.925781 30.609375 -2.78125 L 9.734375 -23.640625 C 9.117188 -24.421875 8.5 -25.347656 7.875 -26.421875 C 7.257812 -27.503906 6.953125 -28.585938 6.953125 -29.671875 Z M 6.953125 -112.4375 "/></g></g></g><g fill="#ffffff" fill-opacity="1"><g transform="translate(227.506189, 232.642514)"><g><path d="M 32.921875 -84.15625 C 31.835938 -83.070312 31.296875 -81.757812 31.296875 -80.21875 L 31.296875 -70.015625 L 93.671875 -70.015625 C 94.597656 -70.015625 95.40625 -69.664062 96.09375 -68.96875 C 96.789062 -68.28125 97.140625 -67.472656 97.140625 -66.546875 L 97.140625 -50.546875 C 97.140625 -49.617188 96.789062 -48.804688 96.09375 -48.109375 C 95.40625 -47.410156 94.597656 -47.0625 93.671875 -47.0625 L 31.296875 -47.0625 L 31.296875 -35.234375 C 31.296875 -34.460938 31.53125 -33.691406 32 -32.921875 L 40.109375 -24.109375 C 41.191406 -23.023438 42.503906 -22.484375 44.046875 -22.484375 L 105.03125 -22.484375 C 105.957031 -22.484375 106.765625 -22.132812 107.453125 -21.4375 C 108.148438 -20.75 108.5 -19.941406 108.5 -19.015625 L 108.5 -3.484375 C 108.5 -2.554688 108.148438 -1.742188 107.453125 -1.046875 C 106.765625 -0.347656 105.957031 0 105.03125 0 L 35.015625 0 C 32.691406 0 30.679688 -0.847656 28.984375 -2.546875 L 9.734375 -21.328125 C 7.878906 -23.179688 6.953125 -25.5 6.953125 -28.28125 L 6.953125 -88.09375 C 6.953125 -89.332031 7.257812 -90.492188 7.875 -91.578125 C 8.5 -92.660156 9.117188 -93.507812 9.734375 -94.125 L 28.984375 -113.140625 C 30.835938 -114.992188 33.078125 -115.921875 35.703125 -115.921875 L 105.03125 -115.921875 C 105.957031 -115.921875 106.765625 -115.570312 107.453125 -114.875 C 108.148438 -114.175781 108.5 -113.363281 108.5 -112.4375 L 108.5 -96.453125 C 108.5 -95.523438 108.148438 -94.710938 107.453125 -94.015625 C 106.765625 -93.316406 105.957031 -92.96875 105.03125 -92.96875 L 43.8125 -92.96875 C 42.738281 -92.96875 41.582031 -92.347656 40.34375 -91.109375 Z M 32.921875 -84.15625 "/></g></g></g><g fill="#ffffff" fill-opacity="1"><g transform="translate(342.962215, 232.642514)"><g><path d="M 111.984375 -82.296875 C 111.984375 -80.296875 111.132812 -78.289062 109.4375 -76.28125 L 92.5 -58.1875 L 109.4375 -40.109375 C 111.132812 -38.097656 111.984375 -36.085938 111.984375 -34.078125 L 111.984375 -3.484375 C 111.984375 -2.554688 111.632812 -1.742188 110.9375 -1.046875 C 110.238281 -0.347656 109.425781 0 108.5 0 L 92.96875 0 C 92.039062 0 91.226562 -0.347656 90.53125 -1.046875 C 89.832031 -1.742188 89.484375 -2.554688 89.484375 -3.484375 L 89.484375 -28.046875 C 89.484375 -29.597656 88.945312 -30.914062 87.875 -32 L 75.8125 -44.75 L 74.421875 -45.90625 C 73.804688 -46.363281 73.035156 -46.59375 72.109375 -46.59375 L 46.828125 -46.59375 C 45.742188 -46.59375 44.972656 -46.363281 44.515625 -45.90625 L 43.125 -44.75 L 31.0625 -32 C 29.976562 -31.070312 29.4375 -29.753906 29.4375 -28.046875 L 29.4375 -3.484375 C 29.4375 -2.554688 29.085938 -1.742188 28.390625 -1.046875 C 27.703125 -0.347656 26.894531 0 25.96875 0 L 10.4375 0 C 9.507812 0 8.695312 -0.347656 8 -1.046875 C 7.300781 -1.742188 6.953125 -2.554688 6.953125 -3.484375 L 6.953125 -34.078125 C 6.953125 -36.085938 7.800781 -38.097656 9.5 -40.109375 L 26.4375 -58.1875 L 9.5 -76.28125 C 7.800781 -78.289062 6.953125 -80.296875 6.953125 -82.296875 L 6.953125 -112.4375 C 6.953125 -113.363281 7.300781 -114.175781 8 -114.875 C 8.695312 -115.570312 9.507812 -115.921875 10.4375 -115.921875 L 25.96875 -115.921875 C 26.894531 -115.921875 27.703125 -115.570312 28.390625 -114.875 C 29.085938 -114.175781 29.4375 -113.363281 29.4375 -112.4375 L 29.4375 -88.328125 C 29.4375 -86.628906 29.976562 -85.316406 31.0625 -84.390625 L 43.125 -71.640625 L 44.515625 -70.484375 C 44.972656 -70.015625 45.742188 -69.78125 46.828125 -69.78125 L 72.109375 -69.78125 C 73.035156 -69.78125 73.804688 -70.015625 74.421875 -70.484375 L 75.8125 -71.640625 L 87.875 -84.390625 C 88.945312 -85.472656 89.484375 -86.785156 89.484375 -88.328125 L 89.484375 -112.4375 C 89.484375 -113.363281 89.832031 -114.175781 90.53125 -114.875 C 91.226562 -115.570312 92.039062 -115.921875 92.96875 -115.921875 L 108.5 -115.921875 C 109.425781 -115.921875 110.238281 -115.570312 110.9375 -114.875 C 111.632812 -114.175781 111.984375 -113.363281 111.984375 -112.4375 Z M 111.984375 -82.296875 "/></g></g></g></g></g></svg>